<svg version="1.1" viewBox="0 0 180 44" xmlns="http://www.w3.org/2000/svg" xmlns:xlink="http://www.w3.org/1999/xlink"><defs><path id="m" d="M18.271.654c-.546 0-1.09.12-1.504.36l-15.226 8.8c-.83.48-1.47 1.655-1.47 2.613v17.6c0 .958.634 2.134 1.463 2.613l15.198 8.8c.403.234.927.354 1.455.36h.094c.527-.006 1.05-.126 1.452-.36l15.213-8.8c.831-.479 1.449-1.655 1.449-2.612V12.427c0-.958-.614-2.134-1.444-2.613l-15.178-8.8c-.414-.24-.959-.36-1.502-.36z"/><path id="d" d="M18.271.654c-.546 0-1.09.12-1.504.36l-15.226 8.8c-.83.48-1.47 1.655-1.47 2.613v17.6c0 .958.634 2.134 1.463 2.613l15.198 8.8c.403.234.927.354 1.455.36h.094c.527-.006 1.05-.126 1.452-.36l15.213-8.8c.831-.479 1.449-1.655 1.449-2.612V12.427c0-.958-.614-2.134-1.444-2.613l-15.178-8.8c-.414-.24-.959-.36-1.502-.36z"/><path id="c" d="M18.271.654c-.546 0-1.09.12-1.504.36l-15.226 8.8c-.83.48-1.47 1.655-1.47 2.613v17.6c0 .958.634 2.134 1.463 2.613l15.198 8.8c.403.234.927.354 1.455.36h.094c.527-.006 1.05-.126 1.452-.36l15.213-8.8c.831-.479 1.449-1.655 1.449-2.612V12.427c0-.958-.614-2.134-1.444-2.613l-15.178-8.8c-.414-.24-.959-.36-1.502-.36z"/><path id="b" d="M18.271.654c-.546 0-1.09.12-1.504.36l-15.226 8.8c-.83.48-1.47 1.655-1.47 2.613v17.6c0 .958.634 2.134 1.463 2.613l15.198 8.8c.403.234.927.354 1.455.36h.094c.527-.006 1.05-.126 1.452-.36l15.213-8.8c.831-.479 1.449-1.655 1.449-2.612V12.427c0-.958-.614-2.134-1.444-2.613l-15.178-8.8c-.414-.24-.959-.36-1.502-.36z"/><path id="a" d="M18.271.654c-.546 0-1.09.12-1.504.36l-15.226 8.8c-.83.48-1.47 1.655-1.47 2.613v17.6c0 .958.634 2.134 1.463 2.613l15.198 8.8c.403.234.927.354 1.455.36h.094c.527-.006 1.05-.126 1.452-.36l15.213-8.8c.831-.479 1.449-1.655 1.449-2.612V12.427c0-.958-.614-2.134-1.444-2.613l-15.178-8.8c-.414-.24-.959-.36-1.502-.36z"/><path id="l" d="M18.271.654c-.546 0-1.09.12-1.504.36l-15.226 8.8c-.83.48-1.47 1.655-1.47 2.613v17.6c0 .958.634 2.134 1.463 2.613l15.198 8.8c.403.234.927.354 1.455.36h.094c.527-.006 1.05-.126 1.452-.36l15.213-8.8c.831-.479 1.449-1.655 1.449-2.612V12.427c0-.958-.614-2.134-1.444-2.613l-15.178-8.8c-.414-.24-.959-.36-1.502-.36z"/><path id="k" d="M18.271.654c-.546 0-1.09.12-1.504.36l-15.226 8.8c-.83.48-1.47 1.655-1.47 2.613v17.6c0 .958.634 2.134 1.463 2.613l15.198 8.8c.403.234.927.354 1.455.36h.094c.527-.006 1.05-.126 1.452-.36l15.213-8.8c.831-.479 1.449-1.655 1.449-2.612V12.427c0-.958-.614-2.134-1.444-2.613l-15.178-8.8c-.414-.24-.959-.36-1.502-.36z"/><path id="j" d="M18.271.654c-.546 0-1.09.12-1.504.36l-15.226 8.8c-.83.48-1.47 1.655-1.47 2.613v17.6c0 .958.634 2.134 1.463 2.613l15.198 8.8c.403.234.927.354 1.455.36h.094c.527-.006 1.05-.126 1.452-.36l15.213-8.8c.831-.479 1.449-1.655 1.449-2.612V12.427c0-.958-.614-2.134-1.444-2.613l-15.178-8.8c-.414-.24-.959-.36-1.502-.36z"/><path id="i" d="M18.271.654c-.546 0-1.09.12-1.504.36l-15.226 8.8c-.83.48-1.47 1.655-1.47 2.613v17.6c0 .958.634 2.134 1.463 2.613l15.198 8.8c.403.234.927.354 1.455.36h.094c.527-.006 1.05-.126 1.452-.36l15.213-8.8c.831-.479 1.449-1.655 1.449-2.612V12.427c0-.958-.614-2.134-1.444-2.613l-15.178-8.8c-.414-.24-.959-.36-1.502-.36z"/><path id="h" d="M18.271.654c-.546 0-1.09.12-1.504.36l-15.226 8.8c-.83.48-1.47 1.655-1.47 2.613v17.6c0 .958.634 2.134 1.463 2.613l15.198 8.8c.403.234.927.354 1.455.36h.094c.527-.006 1.05-.126 1.452-.36l15.213-8.8c.831-.479 1.449-1.655 1.449-2.612V12.427c0-.958-.614-2.134-1.444-2.613l-15.178-8.8c-.414-.24-.959-.36-1.502-.36z"/><path id="g" d="M18.271.654c-.546 0-1.09.12-1.504.36l-15.226 8.8c-.83.48-1.47 1.655-1.47 2.613v17.6c0 .958.634 2.134 1.463 2.613l15.198 8.8c.403.234.927.354 1.455.36h.094c.527-.006 1.05-.126 1.452-.36l15.213-8.8c.831-.479 1.449-1.655 1.449-2.612V12.427c0-.958-.614-2.134-1.444-2.613l-15.178-8.8c-.414-.24-.959-.36-1.502-.36z"/><path id="f" d="M18.271.654c-.546 0-1.09.12-1.504.36l-15.226 8.8c-.83.48-1.47 1.655-1.47 2.613v17.6c0 .958.634 2.134 1.463 2.613l15.198 8.8c.403.234.927.354 1.455.36h.094c.527-.006 1.05-.126 1.452-.36l15.213-8.8c.831-.479 1.449-1.655 1.449-2.612V12.427c0-.958-.614-2.134-1.444-2.613l-15.178-8.8c-.414-.24-.959-.36-1.502-.36z"/><path id="e" d="M.292 8.308H133.13V.263H.292z"/></defs><g fill="none" fill-rule="evenodd"><g fill="#343334"><path d="M51.471 22.66c-2.488.623-3.441 1.146-3.441 2.647 0 1.54 1.271 2.52 3.324 2.52 1.795 0 3.132-.627 4.116-1.842l.102-.125v-4.223l-4.1 1.024zm.78-7.822c2.768-.013 5.248 1.275 5.248 4.746v7.68c0 .191.142.335.348.351l1.986.152v1.138h-3.837c-.104 0-.181-.067-.188-.163l-.075-1.581c-1.161 1.243-2.894 2.02-4.97 2.02-2.829 0-4.675-1.546-4.675-3.726 0-2.203 1.643-3.01 4.933-3.832l4.55-1.139v-.921c-.005-2.564-1.6-3.409-3.5-3.401-1.18.005-2.409.327-3.475.85a.301.301 0 00-.191.255l-.188 2.125h-1.086l-.002-3.08c0-.056.03-.105.066-.125 1.32-.756 3.256-1.34 5.055-1.35zM67.63 10.31c0 .62-.54 1.122-1.206 1.122s-1.206-.502-1.206-1.122c0-.62.54-1.121 1.206-1.121s1.206.502 1.206 1.121zm-.371 4.638c.119-.006.208.073.208.183v12.12c0 .191.142.335.348.35l2.164.166v1.138h-6.587v-.982c0-.095.071-.166.174-.175l1.626-.132c.205-.017.346-.16.346-.35V16.683c0-.198-.15-.344-.363-.355l-1.783-.087v-1.105l3.867-.187zm7.984 7.027c0 3.616 2.211 5.826 5.462 5.833 1.77 0 3.199-.673 4.116-1.853v-7.723c-.935-1.328-2.436-2.081-4.282-2.081-3.194 0-5.296 2.221-5.296 5.824zM86.544 8.19c.12-.006.208.073.208.183v18.89c0 .192.142.336.348.351l1.982.152v1.138h-3.836c-.104 0-.181-.067-.19-.163l-.07-1.564c-1.166 1.235-2.906 2.004-4.972 2.004-3.988 0-6.735-2.661-6.735-7.207 0-3.842 2.184-7.153 6.68-7.153 2.02 0 3.696.69 4.863 1.894v-6.79c0-.198-.15-.344-.362-.355l-1.781-.086V8.379l3.865-.189zm7.84 13.006h9.226c.123 0 .21-.102.191-.233-.164-3.054-1.524-4.873-4.567-4.873-2.791 0-4.677 1.912-4.85 5.106zm4.816-6.378c4.6 0 6.53 2.747 6.615 6.874l.002.307c.003.141-.107.245-.258.246l-11.174.124c.105 3.386 2.157 5.483 5.154 5.477 2.019-.005 3.659-.695 4.845-1.747l.679 1.164c-1.197 1.113-3.15 1.919-5.602 1.919-4.316 0-7.084-2.971-7.084-7.187s2.67-7.177 6.824-7.177z" fill-rule="nonzero"/><path d="M119.479 14.83c2.623 0 4.519 1.384 4.519 4.514v7.914c0 .191.142.334.347.35l2.054.16v1.137h-4.136c-.113 0-.195-.075-.195-.18v-9.102c0-2.499-1.37-3.465-3.341-3.464-1.653 0-3.65.655-5.677 1.833v9.264c0 .192.142.336.348.351l2.09.16v1.138h-6.514v-.982c0-.095.07-.166.172-.175l1.632-.133c.203-.016.344-.16.344-.35l.001-10.583c0-.198-.15-.345-.363-.355l-1.786-.087v-1.105l3.868-.187c.119-.006.208.072.208.183v1.778c2.102-1.26 4.463-2.079 6.43-2.08zm17.367-.012c1.666 0 3.114.404 4.276 1.129a.145.145 0 01.075.128l-.002 3.334h-1.256l-.209-2.369a.292.292 0 00-.18-.248c-.789-.43-1.661-.642-2.704-.642-3.252 0-5.462 2.216-5.462 5.845 0 3.652 2.196 5.852 5.486 5.853 1.457 0 2.73-.403 3.92-1.195l.635 1.203c-1.21.847-2.765 1.325-4.58 1.325-4.522 0-7.428-2.97-7.428-7.186 0-4.216 2.906-7.177 7.43-7.177"/><path d="M146.272 21.196h9.226c.123 0 .21-.102.191-.233-.164-3.054-1.524-4.873-4.567-4.873-2.791 0-4.677 1.912-4.85 5.106zm4.816-6.378c4.6 0 6.53 2.747 6.615 6.874l.002.307c.003.141-.107.245-.258.246l-11.174.124c.105 3.386 2.157 5.483 5.154 5.477 2.019-.005 3.659-.695 4.845-1.747l.679 1.164c-1.197 1.113-3.15 1.919-5.602 1.919-4.316 0-7.085-2.971-7.085-7.187s2.672-7.177 6.825-7.177z" fill-rule="nonzero"/></g><g transform="translate(0 .112)"><mask id="u" fill="#fff"><use xlink:href="#m"/></mask><path fill="#343334" mask="url(#u)" d="M.07 41.799h36.325V.654H.071z"/><mask id="p" fill="#fff"><use xlink:href="#d"/></mask><path fill="#40BDD6" mask="url(#p)" d="M.07 4.664h36.325V2.922H.071z"/><mask id="o" fill="#fff"><use xlink:href="#c"/></mask><path fill="#40BDD6" mask="url(#o)" d="M.07 11.631h36.325V9.889H.071z"/><mask id="n" fill="#fff"><use xlink:href="#b"/></mask><path fill="#40BDD6" mask="url(#n)" d="M.07 18.597h36.325v-1.741H.071z"/><mask id="z" fill="#fff"><use xlink:href="#a"/></mask><path fill="#40BDD6" mask="url(#z)" d="M.07 25.563h36.325v-1.741H.071z"/><mask id="y" fill="#fff"><use xlink:href="#l"/></mask><path fill="#40BDD6" mask="url(#y)" d="M.07 32.53h36.325v-1.742H.071z"/><mask id="x" fill="#fff"><use xlink:href="#k"/></mask><path fill="#40BDD6" mask="url(#x)" d="M.07 39.496h36.325v-1.493H.071z"/><mask id="w" fill="#fff"><use xlink:href="#j"/></mask><path fill="#40BDD6" mask="url(#w)" d="M31.42 41.799h1.492V.654H31.42z"/><mask id="v" fill="#fff"><use xlink:href="#i"/></mask><path fill="#40BDD6" mask="url(#v)" d="M24.453 41.799h1.493V.654h-1.493z"/><mask id="t" fill="#fff"><use xlink:href="#h"/></mask><path fill="#40BDD6" mask="url(#t)" d="M17.487 41.799h1.493V.654h-1.493z"/><mask id="s" fill="#fff"><use xlink:href="#g"/></mask><path fill="#40BDD6" mask="url(#s)" d="M10.52 41.799h1.493V.654H10.52z"/><mask id="r" fill="#fff"><use xlink:href="#f"/></mask><path fill="#40BDD6" mask="url(#r)" d="M3.553 41.799h1.492V.654H3.553z"/></g><path d="M5.572 10.881a1.272 1.272 0 10-2.544 0 1.272 1.272 0 002.544 0m13.933 0a1.272 1.272 0 10-2.543 0 1.272 1.272 0 002.543 0M5.572 17.86a1.272 1.272 0 10-2.544 0 1.272 1.272 0 002.544 0m0 6.978a1.272 1.272 0 10-2.544 0 1.272 1.272 0 002.544 0m0 6.978a1.272 1.272 0 10-2.544 0 1.272 1.272 0 002.544 0M19.505 3.904a1.272 1.272 0 10-2.543 0 1.272 1.272 0 002.543 0m0 13.956a1.272 1.272 0 10-2.543 0 1.272 1.272 0 002.543 0m0 6.978a1.272 1.272 0 10-2.543 0 1.272 1.272 0 002.543 0m0 6.978a1.272 1.272 0 10-2.543 0 1.272 1.272 0 002.543 0m0 6.977a1.272 1.272 0 10-2.543 0 1.272 1.272 0 002.543 0M12.54 3.904a1.272 1.272 0 10-2.544 0 1.272 1.272 0 002.544 0m0 6.977a1.272 1.272 0 10-2.544 0 1.272 1.272 0 002.544 0m0 6.979a1.272 1.272 0 10-2.544 0 1.272 1.272 0 002.544 0m0 6.978a1.272 1.272 0 10-2.544 0 1.272 1.272 0 002.544 0m0 6.978a1.272 1.272 0 10-2.544 0 1.272 1.272 0 002.544 0m0 6.977a1.272 1.272 0 10-2.544 0 1.272 1.272 0 002.544 0M26.471 3.904a1.272 1.272 0 10-2.543 0 1.272 1.272 0 002.543 0m0 6.977a1.272 1.272 0 10-2.543 0 1.272 1.272 0 002.543 0m0 6.979a1.272 1.272 0 10-2.543 0 1.272 1.272 0 002.543 0m0 6.978a1.272 1.272 0 10-2.543 0 1.272 1.272 0 002.543 0m0 6.978a1.272 1.272 0 10-2.543 0 1.272 1.272 0 002.543 0m0 6.977a1.272 1.272 0 10-2.543 0 1.272 1.272 0 002.543 0m6.966-27.912a1.272 1.272 0 10-2.543 0 1.272 1.272 0 002.543 0m0 6.979a1.272 1.272 0 10-2.543 0 1.272 1.272 0 002.543 0m0 6.978a1.272 1.272 0 10-2.543 0 1.272 1.272 0 002.543 0m0 6.978a1.272 1.272 0 10-2.543 0 1.272 1.272 0 002.543 0" fill="#fff"/><g transform="translate(46.385 35.419)"><mask id="q" fill="#fff"><use xlink:href="#e"/></mask><path d="M131.33 2.726c-.303 0-.557.11-.763.33-.205.221-.332.53-.38.927h2.197v-.057c-.021-.38-.124-.676-.308-.886-.184-.21-.432-.314-.746-.314zm1.748 3.087c-.368.565-.92.848-1.654.848-.596 0-1.08-.196-1.453-.586-.373-.391-.56-.913-.56-1.568v-.138c0-.436.084-.824.25-1.167.166-.342.399-.609.698-.803.298-.193.622-.29.971-.29.57 0 1.014.188 1.33.564.317.376.475.914.475 1.615V4.6h-2.974c.011.433.138.782.38 1.049.242.266.55.4.923.4.265 0 .489-.055.673-.163.184-.108.345-.252.483-.43l.458.357zm-6.088.235c.268 0 .502-.08.702-.243.2-.162.31-.365.333-.609h.71a1.36 1.36 0 01-.26.718c-.16.228-.373.409-.64.544a1.847 1.847 0 01-.845.203c-.598 0-1.073-.2-1.426-.599-.353-.399-.53-.944-.53-1.636V4.3c0-.428.079-.808.236-1.14a1.79 1.79 0 01.676-.775c.293-.184.64-.276 1.04-.276.493 0 .901.148 1.227.443s.5.677.521 1.147h-.71a1.036 1.036 0 00-.322-.699 1.003 1.003 0 00-.716-.274c-.381 0-.677.137-.886.412-.21.274-.315.67-.315 1.19v.143c0 .505.105.895.312 1.168.209.273.507.41.893.41zm-5.632-3.857l.024.551a1.6 1.6 0 011.314-.633c.928 0 1.396.524 1.404 1.57v2.9h-.75V3.675c-.003-.316-.076-.55-.218-.702-.142-.15-.362-.227-.663-.227-.243 0-.457.065-.64.195-.184.13-.328.3-.43.511V6.58h-.751V2.19h.71zm-3.428.535a1 1 0 00-.762.331c-.205.22-.333.529-.381.926h2.199v-.057c-.022-.38-.125-.676-.309-.886-.184-.21-.432-.314-.747-.314zm1.75 3.087c-.368.565-.92.848-1.656.848-.595 0-1.079-.196-1.452-.586-.373-.391-.56-.913-.56-1.568v-.138c0-.436.083-.824.25-1.167.166-.342.399-.609.697-.803.3-.193.623-.29.971-.29.572 0 1.015.189 1.331.564.316.376.475.914.475 1.615V4.6h-2.974c.012.433.138.782.38 1.049.241.266.55.4.923.4.265 0 .49-.055.673-.163a1.69 1.69 0 00.483-.43l.458.357zm-7.571-1.38c0 .496.102.884.304 1.167.203.283.487.424.852.424.474 0 .821-.215 1.043-.645V3.375c-.23-.42-.575-.629-1.035-.629a.996.996 0 00-.855.427c-.206.283-.31.704-.31 1.26zm-.755-.084c0-.685.159-1.229.475-1.633a1.518 1.518 0 011.257-.607c.536 0 .954.19 1.254.568l.037-.486h.685v4.283c0 .568-.168 1.016-.505 1.343-.337.327-.789.491-1.357.491-.316 0-.626-.068-.928-.203a1.598 1.598 0 01-.694-.556l.389-.45c.322.398.715.596 1.18.596.366 0 .65-.103.855-.308.204-.205.306-.495.306-.868v-.377c-.3.346-.71.52-1.23.52a1.5 1.5 0 01-1.247-.622c-.317-.414-.477-.977-.477-1.691zm-1.738 2.23h.75V2.19h-.75v4.39zm-.06-5.553c0-.121.037-.224.111-.308s.185-.126.33-.126c.146 0 .258.043.333.126a.443.443 0 01.114.308.428.428 0 01-.114.304c-.075.082-.187.122-.332.122-.146 0-.257-.04-.331-.122a.433.433 0 01-.111-.304zM107.66 6.58h.75V.35h-.75v6.23zm-1.952 0h.75V.35h-.75v6.23zm-2.756-3.853a1 1 0 00-.763.33c-.205.221-.332.53-.381.927h2.199v-.057c-.022-.38-.124-.676-.308-.886s-.433-.314-.747-.314zm1.748 3.087c-.367.565-.919.848-1.654.848-.596 0-1.08-.196-1.453-.586-.373-.391-.56-.913-.56-1.568V4.37c0-.436.083-.824.25-1.167a1.95 1.95 0 01.697-.803c.3-.193.623-.29.972-.29.57 0 1.015.188 1.33.564.317.376.475.914.475 1.615V4.6h-2.973c.01.433.137.782.38 1.049.241.266.549.4.922.4.265 0 .49-.055.674-.163a1.69 1.69 0 00.482-.43l.458.357zm-5.025-4.686v1.064h.82v.58h-.82v2.725c0 .176.037.308.11.396.073.088.197.132.373.132.087 0 .205-.016.357-.049v.605c-.198.054-.39.081-.576.081-.335 0-.588-.102-.758-.305-.171-.202-.257-.49-.257-.864V2.77h-.798v-.58h.798V1.128h.751zm-4.907 1.064l.024.551a1.6 1.6 0 011.315-.633c.927 0 1.395.524 1.403 1.57v2.9h-.75V3.675c-.003-.316-.075-.55-.218-.702-.142-.15-.363-.227-.663-.227a1.08 1.08 0 00-.64.195c-.185.13-.328.3-.43.511V6.58h-.75V2.19h.709zm-2.63 4.388h.75V2.19h-.75v4.39zm-.06-5.553c0-.121.036-.224.111-.308.074-.083.184-.126.33-.126s.258.043.333.126a.443.443 0 01.114.308.428.428 0 01-.114.304c-.075.082-.187.122-.333.122s-.256-.04-.33-.122a.43.43 0 01-.111-.304zM88.059 6.58h.75V.35h-.75v6.23zm-3.062-.571c.236 0 .459-.061.67-.183.21-.121.363-.28.458-.474V4.45h-.588c-.92 0-1.38.27-1.38.807 0 .235.08.42.236.552.157.133.358.199.604.199zm1.246.571c-.043-.086-.078-.24-.105-.462a1.674 1.674 0 01-1.25.544c-.433 0-.788-.122-1.065-.368a1.187 1.187 0 01-.416-.93c0-.458.174-.812.521-1.065.348-.253.837-.38 1.467-.38h.73v-.344c0-.262-.078-.471-.235-.627-.157-.155-.388-.234-.694-.234-.267 0-.492.068-.673.203-.181.136-.272.3-.272.491h-.755c0-.219.079-.43.234-.635.155-.204.366-.365.632-.484.267-.12.56-.179.879-.179.505 0 .901.127 1.189.38.286.252.434.6.445 1.044v2.02c0 .403.052.724.155.962v.064h-.787zm-4.583 0h.75V2.19h-.75v4.39zm-.06-5.553c0-.121.037-.224.112-.308.074-.083.184-.126.33-.126s.257.043.333.126a.447.447 0 01.113.308.432.432 0 01-.113.304c-.076.082-.187.122-.333.122s-.256-.04-.33-.122a.43.43 0 01-.113-.304zm-2.588 5.022c.267 0 .5-.08.7-.243a.856.856 0 00.334-.609h.71a1.36 1.36 0 01-.26.718c-.16.228-.373.409-.64.544a1.846 1.846 0 01-.844.203c-.599 0-1.073-.2-1.427-.599-.353-.399-.53-.944-.53-1.636V4.3c0-.428.079-.808.236-1.14a1.79 1.79 0 01.676-.775c.293-.184.64-.276 1.04-.276.492 0 .901.148 1.227.443s.5.677.521 1.147h-.71A1.036 1.036 0 0079.724 3a1.003 1.003 0 00-.716-.274c-.381 0-.677.137-.886.412-.21.274-.315.67-.315 1.19v.143c0 .505.104.895.313 1.168.208.273.506.41.893.41zm-3.761.531h.755V2.19h-.755v4.39zm-2.372 0V2.77h-.694v-.58h.694v-.372c0-.49.14-.871.42-1.145.28-.273.675-.41 1.186-.41.302 0 .685.083 1.147.248l-.125.633a2.606 2.606 0 00-.966-.203c-.322 0-.553.072-.695.217-.142.145-.213.362-.213.651v.382h.897v.58h-.897v3.808h-.755zm-2.248 0h.75V2.19h-.75v4.39zm-.061-5.553a.45.45 0 01.111-.308c.074-.083.185-.126.331-.126.146 0 .257.043.332.126a.444.444 0 01.115.308.429.429 0 01-.115.304c-.075.082-.186.122-.332.122-.146 0-.257-.04-.33-.122a.433.433 0 01-.112-.304zm-1.607.101v1.064h.82v.58h-.82v2.725c0 .176.037.308.11.396.073.088.197.132.372.132.087 0 .206-.016.358-.049v.605a2.18 2.18 0 01-.576.081c-.335 0-.589-.102-.76-.305-.17-.202-.255-.49-.255-.864V2.77h-.799v-.58h.8V1.128h.75zm-1.998 1.737a2.27 2.27 0 00-.37-.029c-.491 0-.825.21-1 .629V6.58h-.751V2.191h.73l.012.507c.246-.392.594-.589 1.047-.589.146 0 .256.02.332.057v.698zm-5.15 3.144c.234 0 .457-.061.669-.183.21-.121.363-.28.458-.474V4.45h-.588c-.92 0-1.38.27-1.38.807 0 .235.08.42.236.552.156.133.358.199.604.199zm1.245.571c-.043-.086-.08-.24-.106-.462a1.674 1.674 0 01-1.25.544c-.432 0-.787-.122-1.064-.368a1.185 1.185 0 01-.416-.93c0-.458.174-.812.521-1.065.348-.253.836-.38 1.467-.38h.73v-.344c0-.262-.078-.471-.236-.627-.156-.155-.387-.233-.693-.233-.267 0-.492.067-.673.202-.181.136-.272.3-.272.491h-.755c0-.219.078-.43.233-.635.156-.204.367-.365.633-.484.267-.12.56-.179.879-.179.505 0 .902.127 1.189.38.285.252.435.6.445 1.044v2.02c0 .403.052.724.155.962v.064h-.787zm-8.647-4.388l.025.551a1.6 1.6 0 011.314-.633c.928 0 1.396.524 1.404 1.57v2.9h-.75V3.676c-.004-.316-.076-.55-.218-.702-.141-.15-.363-.227-.663-.227-.243 0-.457.065-.64.195-.185.13-.328.3-.43.511V6.58h-.751V2.19h.71zm-2.63 4.388h.75V2.19h-.75v4.39zm-.06-5.553a.45.45 0 01.11-.308c.075-.083.185-.126.331-.126s.257.043.333.126a.443.443 0 01.114.308.428.428 0 01-.114.304c-.076.082-.187.122-.333.122s-.256-.04-.33-.122a.43.43 0 01-.112-.304zm-4.74 1.7c-.303 0-.557.11-.763.33-.205.221-.332.53-.38.927h2.197v-.057c-.021-.38-.124-.676-.308-.886-.183-.21-.432-.314-.746-.314zm1.748 3.087c-.368.565-.92.848-1.655.848-.595 0-1.079-.196-1.452-.586-.373-.391-.56-.913-.56-1.568V4.37c0-.436.084-.824.25-1.167a1.94 1.94 0 01.698-.803c.298-.193.622-.29.97-.29.571 0 1.015.188 1.331.564.317.376.475.914.475 1.615V4.6h-2.973c.01.433.137.782.379 1.049.242.266.55.4.922.4.266 0 .49-.055.674-.163.184-.108.345-.252.483-.43l.458.357zm-5.152-.397a.553.553 0 00-.23-.473c-.152-.112-.419-.21-.799-.29s-.681-.179-.904-.292a1.28 1.28 0 01-.495-.406.965.965 0 01-.16-.56c0-.36.152-.663.455-.913.305-.248.693-.373 1.167-.373.498 0 .901.129 1.21.386.31.257.465.585.465.986h-.754a.678.678 0 00-.262-.532.98.98 0 00-.66-.223c-.273 0-.486.06-.64.179a.563.563 0 00-.231.466c0 .181.072.318.215.41.143.092.402.18.777.263.374.084.677.184.91.3.233.117.405.257.517.42.112.164.17.364.17.599 0 .392-.158.706-.472.943-.313.237-.72.355-1.22.355-.353 0-.663-.062-.933-.187a1.516 1.516 0 01-.635-.521 1.255 1.255 0 01-.23-.724h.75a.775.775 0 00.303.598c.188.147.436.221.744.221.284 0 .512-.057.683-.172a.53.53 0 00.259-.46zM37.203 2.19l.024.55a1.6 1.6 0 011.314-.632c.928 0 1.395.524 1.404 1.57v2.9h-.75V3.675c-.003-.316-.075-.55-.217-.702-.143-.15-.364-.227-.664-.227a1.08 1.08 0 00-.64.195c-.185.13-.328.3-.43.511V6.58h-.751V2.19h.71zm-3.428.535a1 1 0 00-.762.33c-.206.221-.333.53-.382.927h2.2v-.057c-.022-.38-.126-.676-.309-.886-.184-.21-.433-.314-.747-.314zm1.749 3.087c-.368.565-.92.848-1.656.848-.594 0-1.078-.196-1.452-.586-.373-.391-.56-.913-.56-1.568v-.138c0-.436.084-.824.25-1.167.166-.342.399-.609.698-.803.299-.193.622-.29.971-.29.571 0 1.014.188 1.33.564.317.376.475.914.475 1.615V4.6h-2.973c.011.433.137.782.38 1.049.241.266.55.4.922.4.265 0 .49-.055.673-.163.184-.108.345-.252.483-.43l.459.357zm-5.15-.397a.554.554 0 00-.229-.473c-.153-.112-.42-.21-.8-.29a3.822 3.822 0 01-.904-.292 1.284 1.284 0 01-.495-.406.97.97 0 01-.16-.56c0-.36.152-.663.457-.913.304-.248.693-.373 1.166-.373.497 0 .9.129 1.21.386.31.257.465.585.465.986h-.755a.678.678 0 00-.261-.532.98.98 0 00-.66-.223c-.272 0-.486.06-.64.179a.563.563 0 00-.232.466c0 .18.072.318.216.41.143.091.402.18.776.263.375.084.679.184.911.3.232.117.405.257.518.42.112.164.168.364.168.599 0 .392-.157.706-.471.943-.314.237-.72.355-1.221.355-.351 0-.663-.062-.933-.187a1.516 1.516 0 01-.635-.521 1.255 1.255 0 01-.229-.724h.75a.774.774 0 00.303.598c.188.147.436.221.744.221.284 0 .512-.057.684-.172a.53.53 0 00.257-.46zM21.883 2.19l.024.55a1.6 1.6 0 011.314-.632c.927 0 1.395.523 1.404 1.57v2.9h-.75V3.675c-.003-.316-.076-.55-.218-.702-.142-.15-.363-.227-.663-.227-.243 0-.457.065-.641.195s-.327.3-.43.511V6.58h-.75V2.191h.71zm-3.746 3.816c.236 0 .458-.06.67-.182.21-.121.363-.28.458-.475v-.9h-.589c-.919 0-1.379.27-1.379.807 0 .235.079.42.236.552.157.133.358.198.604.198zm1.246.572c-.044-.086-.079-.24-.106-.462a1.672 1.672 0 01-1.25.544c-.432 0-.787-.123-1.064-.368a1.185 1.185 0 01-.416-.93c0-.458.174-.812.521-1.065.348-.253.837-.38 1.467-.38h.73v-.344c0-.262-.078-.471-.235-.627-.157-.155-.388-.234-.694-.234-.268 0-.492.068-.674.203-.18.136-.271.3-.271.491h-.755c0-.219.078-.43.234-.635.155-.204.366-.365.632-.484s.56-.179.879-.179c.505 0 .901.127 1.188.38.287.252.435.6.446 1.044v2.02c0 .403.052.724.155.962v.064h-.787zM10.15 2.191l.02.487c.323-.38.756-.569 1.303-.569.613 0 1.032.236 1.253.706a1.66 1.66 0 01.57-.51c.234-.13.51-.196.83-.196.962 0 1.452.51 1.468 1.53v2.94h-.75V3.683c0-.313-.072-.548-.215-.704-.144-.155-.385-.233-.722-.233a.994.994 0 00-.694.25c-.184.166-.29.39-.32.67V6.58h-.755V3.704c0-.639-.313-.958-.937-.958-.492 0-.829.21-1.01.629v3.204h-.75V2.191h.71zM7.568 6.145c-.292.344-.72.516-1.286.516-.467 0-.824-.136-1.068-.408-.245-.272-.369-.674-.372-1.206V2.19h.75v2.835c0 .665.271.998.812.998.573 0 .955-.214 1.144-.64V2.19h.75v4.388h-.714l-.015-.434zM1.043 2.722a1.595 1.595 0 011.299-.613c.927 0 1.395.524 1.403 1.57v2.9h-.75V3.675c-.003-.316-.075-.55-.218-.702-.142-.15-.363-.227-.663-.227a1.08 1.08 0 00-.64.195c-.185.13-.328.3-.43.511V6.58H.292V.349h.75v2.373z" fill="#2C2C2C" fill-rule="nonzero" mask="url(#q)"/></g></g></svg>