<svg xmlns="http://www.w3.org/2000/svg" viewBox="0 0 900.1 210">
  <style>
    .st0,.st1{fill:#70c8f1}.st1{opacity:.5}
  </style>
  <path class="st0" d="M5.6 60.4h24.1v96.4H5.6V60.4zM53.9 60.4h22.9v15.5h.4c2.3-4.8 5.8-9 10.4-12.6 4.7-3.5 11-5.3 19.1-5.3 6.4 0 11.9 1.1 16.4 3.2 4.5 2.1 8.1 5 10.9 8.4 2.8 3.5 4.8 7.5 6 12 1.2 4.6 1.8 9.3 1.8 14.3v60.8h-24.1V108c0-2.7-.1-5.7-.4-8.9-.3-3.3-1-6.4-2.1-9.2-1.1-2.9-2.9-5.3-5.3-7.2-2.4-1.9-5.7-2.9-9.8-2.9-4 0-7.4.7-10.1 2-2.7 1.3-5 3.1-6.8 5.4-1.9 2.2-3.2 4.8-4 7.8-.8 2.9-1.2 6-1.2 9.2v52.6H53.9V60.4zM165.6 60.4h22.9v15.5h.4c2.3-4.8 5.8-9 10.4-12.6 4.7-3.5 11-5.3 19.1-5.3 6.4 0 11.9 1.1 16.4 3.2 4.5 2.1 8.1 5 10.9 8.4 2.8 3.5 4.8 7.5 6 12 1.2 4.6 1.8 9.3 1.8 14.3v60.8h-24.1V108c0-2.7-.1-5.7-.4-8.9-.3-3.3-1-6.4-2.1-9.2-1.1-2.9-2.9-5.3-5.3-7.2-2.4-1.9-5.7-2.9-9.8-2.9-4 0-7.4.7-10.1 2-2.7 1.3-5 3.1-6.8 5.4-1.8 2.3-3.1 4.9-3.9 7.8-.8 2.9-1.2 6-1.2 9.2v52.6h-24.1V60.4zM295.9 117c.8 7.2 3.6 12.9 8.4 16.9 4.8 4 10.6 6 17.5 6 6 0 11.1-1.2 15.2-3.7s7.7-5.6 10.7-9.3L365 140c-5.6 7-11.9 11.9-18.9 14.9-7 2.9-14.3 4.4-21.9 4.4-7.2 0-14.1-1.2-20.5-3.6-6.4-2.4-12-5.8-16.7-10.2-4.7-4.4-8.4-9.7-11.1-16-2.7-6.2-4.1-13.2-4.1-20.8s1.4-14.6 4.1-20.8c2.7-6.2 6.5-11.5 11.1-16 4.7-4.4 10.2-7.8 16.7-10.2 6.4-2.4 13.3-3.6 20.5-3.6 6.7 0 12.8 1.2 18.4 3.5 5.5 2.3 10.3 5.7 14.3 10.1 4 4.4 7 9.9 9.2 16.4s3.3 14 3.3 22.4v6.6h-73.5zm49.4-18c-.1-7.1-2.3-12.7-6.6-16.8-4.3-4.1-10.2-6.1-17.9-6.1-7.2 0-13 2.1-17.2 6.2-4.2 4.2-6.8 9.7-7.7 16.7h49.4zM388.3 60.4h24.1v15.3h.4c2.7-5.6 6.5-10 11.4-13.1 4.9-3.1 10.6-4.6 17.1-4.6 1.5 0 2.9.1 4.3.4 1.4.3 2.8.6 4.3 1v23.3c-2-.5-4-1-5.9-1.3-1.9-.3-3.9-.5-5.7-.5-5.6 0-10.1 1-13.6 3.1-3.4 2.1-6 4.5-7.8 7.1-1.8 2.7-3 5.4-3.6 8-.6 2.7-.9 4.7-.9 6v51.6h-24.1V60.4z"/>
  <path class="st1" d="M516.9 87.1c-4.7-6.6-11-9.8-18.9-9.8-3.2 0-6.4.8-9.4 2.4-3.1 1.6-4.6 4.2-4.6 7.8 0 2.9 1.3 5.1 3.8 6.4 2.5 1.3 5.8 2.5 9.6 3.4 3.9.9 8.1 1.9 12.6 2.9s8.7 2.5 12.6 4.6c3.9 2.1 7.1 4.9 9.6 8.5 2.5 3.6 3.8 8.6 3.8 14.9 0 5.8-1.2 10.6-3.7 14.6s-5.7 7.1-9.6 9.5c-4 2.4-8.4 4.2-13.4 5.2-5 1.1-9.9 1.6-14.9 1.6-7.5 0-14.4-1.1-20.7-3.2s-11.9-6-16.9-11.7l16.1-15.1c3.1 3.5 6.4 6.3 9.9 8.5s7.9 3.3 13 3.3c1.7 0 3.5-.2 5.4-.6 1.9-.4 3.6-1.1 5.2-2 1.6-.9 2.9-2.1 3.9-3.5s1.5-3 1.5-4.9c0-3.3-1.3-5.8-3.8-7.4-2.5-1.6-5.8-2.9-9.6-3.9s-8.1-1.9-12.6-2.8-8.7-2.3-12.6-4.2c-3.9-1.9-7.1-4.6-9.6-8.1s-3.8-8.3-3.8-14.5c0-5.4 1.1-10 3.3-14 2.2-3.9 5.1-7.2 8.7-9.7 3.6-2.5 7.8-4.4 12.4-5.6 4.7-1.2 9.4-1.8 14.3-1.8 6.4 0 12.8 1.1 19.1 3.3 6.3 2.2 11.4 6 15.3 11.3l-16 14.6zM552.6 60.4h24.1v96.4h-24.1V60.4zM699.3 60.4v87.8c0 8.7-1.1 16.6-3.2 23.6s-5.5 13-9.9 17.9-10.1 8.7-17 11.4c-6.8 2.7-14.9 4-24.3 4-9 0-17.5-1.1-25.5-3.4s-15.5-6.4-22.3-12.5l14.5-19.7c4.8 4.4 9.8 7.8 15.1 10.2 5.2 2.4 11.2 3.6 18.1 3.6 5.8 0 10.6-.8 14.6-2.4 3.9-1.6 7.1-3.8 9.4-6.6 2.3-2.8 4-6.2 5-10.1 1-4 1.5-8.3 1.5-13.2v-7h-.4c-3.5 4.7-8.1 8.2-13.9 10.5-5.8 2.3-11.7 3.5-17.7 3.5-7.2 0-13.8-1.3-19.7-3.9-5.9-2.6-10.9-6.1-15.2-10.5s-7.5-9.6-9.7-15.7c-2.3-6-3.4-12.4-3.4-19.3 0-7.1 1.1-13.7 3.2-19.9 2.1-6.2 5.3-11.5 9.4-16.1s9.1-8.1 15-10.7c5.8-2.6 12.5-3.9 20-3.9 6.8 0 13.2 1.3 19.1 4 5.9 2.7 10.6 7 14.1 12.9h.4V60.4h22.8zm-51.4 19.3c-4.3 0-8.2.7-11.7 2.1-3.5 1.4-6.5 3.4-8.9 5.8-2.5 2.5-4.4 5.5-5.8 9-1.4 3.5-2.1 7.5-2.1 11.7 0 3.9.7 7.5 2.1 10.8 1.4 3.4 3.4 6.3 5.9 8.8 2.5 2.5 5.6 4.6 9 6 3.5 1.5 7.2 2.2 11.2 2.2 4.4 0 8.4-.7 11.9-2.2 3.5-1.5 6.6-3.4 9-5.9 2.5-2.5 4.4-5.5 5.7-8.9 1.3-3.5 2-7.2 2-11.2 0-8.4-2.5-15.3-7.6-20.5-5-5.1-11.9-7.7-20.7-7.7zM747.3 73.9h.4c1.9-4 5.2-7.7 9.9-10.9 4.8-3.3 10.9-4.9 18.4-4.9 6.4 0 11.9 1.1 16.4 3.2s8.1 5 10.9 8.4c2.8 3.5 4.8 7.5 6 12 1.2 4.6 1.8 9.3 1.8 14.3v60.8H787V108c0-2.7-.1-5.7-.4-8.9-.3-3.3-1-6.4-2.1-9.2s-2.9-5.3-5.3-7.2c-2.4-1.9-5.7-2.9-9.8-2.9-4 0-7.4.7-10.1 2-2.7 1.3-5 3.1-6.8 5.4-1.8 2.3-3.1 4.9-3.9 7.8-.8 2.9-1.2 6-1.2 9.2v52.6h-24.1V5h24.1v68.9zM823 80.9V60.4h19.9V32.5H867v27.9h26.5v20.5H867v42.2c0 4.8.9 8.6 2.7 11.4 1.8 2.8 5.4 4.2 10.7 4.2 2.1 0 4.5-.2 7-.7 2.5-.5 4.5-1.2 6-2.3V156c-2.5 1.2-5.7 2-9.3 2.5-3.7.5-6.9.7-9.7.7-6.4 0-11.7-.7-15.8-2.1-4.1-1.4-7.3-3.5-9.6-6.4-2.3-2.9-3.9-6.5-4.8-10.7-.9-4.3-1.3-9.2-1.3-14.9V80.9H823z"/>
  <circle class="st1" cx="564.6" cy="25.4" r="15"/>
  <circle class="st0" cx="17.7" cy="25.4" r="15"/>
</svg>